<svg xmlns="http://www.w3.org/2000/svg" width="28" height="28" viewBox="0 0 28 28">
  <g id="ico-top-before-login" transform="translate(-93.816 -50)">
    <g id="_01" data-name="01" transform="translate(42.764 49.5)" fill="none" stroke-miterlimit="10">
      <path d="M51.052,14.5a14,14,0,1,0,14-14A14,14,0,0,0,51.052,14.5Z" stroke="none"/>
      <path d="M 65.05308532714844 2 C 61.71395111083984 2 58.57463836669922 3.300149917602539 56.21342468261719 5.660959243774414 C 53.85232543945312 8.021650314331055 52.552001953125 11.16016960144043 52.552001953125 14.49837017059326 C 52.552001953125 17.83763885498047 53.85236358642578 20.97706985473633 56.21353149414062 23.33834075927734 C 58.57469940185547 25.69960021972656 61.71397399902344 27 65.05308532714844 27 C 71.94500732421875 27 77.55198669433594 21.39179039001465 77.55198669433594 14.49837017059326 C 77.55198669433594 7.60675048828125 71.94500732421875 2 65.05308532714844 2 M 65.05308532714844 0.5 C 72.78121948242188 0.5 79.05198669433594 6.767749786376953 79.05198669433594 14.49837017059326 C 79.05198669433594 22.23115921020508 72.78121948242188 28.5 65.05308532714844 28.5 C 57.32057952880859 28.5 51.052001953125 22.23115921020508 51.052001953125 14.49837017059326 C 51.052001953125 6.767749786376953 57.32057952880859 0.5 65.05308532714844 0.5 Z" stroke="none" fill="#112759"/>
    </g>
    <path id="_02" data-name="02" d="M68.22,11.871h-.743V10.826a3.593,3.593,0,1,0-7.17,0v1.045h-.674a.744.744,0,0,0-.707.776v7.569a.745.745,0,0,0,.707.776H68.22a.744.744,0,0,0,.706-.776V12.646a.743.743,0,0,0-.706-.776m-3.587,5.711a.71.71,0,1,1-1.414,0v-2.3a.71.71,0,1,1,1.414,0Zm1.431-5.711H61.721V10.826a2.174,2.174,0,1,1,4.343,0Z" transform="translate(43.89 50.009)" fill="#112759"/>
  </g>
</svg>
