<svg xmlns="http://www.w3.org/2000/svg" width="37.388" height="37.388" viewBox="0 0 37.388 37.388">
  <g id="ico-search-big" transform="translate(0 -0.001)">
    <path id="합치기_18" data-name="합치기 18" d="M12084.12-340.1l-6.853-6.852a16.425,16.425,0,0,1-9.767,3.2,16.5,16.5,0,0,1-16.5-16.5,16.5,16.5,0,0,1,16.5-16.5,16.5,16.5,0,0,1,16.5,16.5,16.423,16.423,0,0,1-3.2,9.767l6.853,6.85a2.5,2.5,0,0,1,0,3.537,2.494,2.494,0,0,1-1.769.733A2.488,2.488,0,0,1,12084.12-340.1Zm-24.75-28.288a11.417,11.417,0,0,0-3.37,8.134,11.416,11.416,0,0,0,3.37,8.131,11.418,11.418,0,0,0,8.131,3.371,11.421,11.421,0,0,0,8.131-3.371,11.416,11.416,0,0,0,3.37-8.131,11.417,11.417,0,0,0-3.37-8.134,11.418,11.418,0,0,0-8.131-3.368A11.415,11.415,0,0,0,12059.37-368.388Z" transform="translate(-12051 376.756)" fill="#fff"/>
  </g>
</svg>
