<svg xmlns="http://www.w3.org/2000/svg" width="28" height="28" viewBox="0 0 28 28">
  <g id="ico-top-kr" transform="translate(-236.243 -49.5)">
    <g id="_01" data-name="01" transform="translate(43 49)" fill="none" stroke-miterlimit="10">
      <path d="M193.243,14.5a14,14,0,1,0,14-14A14,14,0,0,0,193.243,14.5Z" stroke="none"/>
      <path d="M 207.2424468994141 2.000001907348633 C 203.9037628173828 2.000001907348633 200.7648620605469 3.300130844116211 198.4039611816406 5.660890579223633 C 196.0431518554688 8.021581649780273 194.7429962158203 11.16012001037598 194.7429962158203 14.49837112426758 C 194.7429962158203 17.83769226074219 196.0431976318359 20.97714996337891 198.4040832519531 23.33841133117676 C 200.7649230957031 25.69962120056152 203.9037628173828 27 207.2424468994141 27 C 210.5808410644531 27 213.7197875976562 25.6995906829834 216.0810394287109 23.33832168579102 C 218.4424896240234 20.97688102722168 219.7429962158203 17.83745956420898 219.7429962158203 14.49837112426758 C 219.7429962158203 11.16035079956055 218.4425354003906 8.021841049194336 216.0811614990234 5.660980224609375 C 213.7198486328125 3.300161361694336 210.5808563232422 2.000001907348633 207.2424468994141 2.000001907348633 M 207.2424468994141 0.5000019073486328 C 214.9730834960938 0.5000019073486328 221.2429962158203 6.767751693725586 221.2429962158203 14.49837112426758 C 221.2429962158203 22.23117065429688 214.9730834960938 28.5 207.2424468994141 28.5 C 199.5107421875 28.5 193.2429962158203 22.23117065429688 193.2429962158203 14.49837112426758 C 193.2429962158203 6.767751693725586 199.5107421875 0.5000019073486328 207.2424468994141 0.5000019073486328 Z" stroke="none" fill="#112759"/>
    </g>
    <path id="icon" d="M208.193,12.566h1.71a1.987,1.987,0,1,0,0-3.974h-5.09l-6.4,6.83V8.593h-.466v8l3.673-3.919,3.657,3.868h.642l-3.979-4.207,3.076-3.282H209.9a1.527,1.527,0,1,1,0,3.052h-2.787l4.194,4.436h.642Z" transform="translate(45.791 51.407)" fill="#182559" stroke="#182559" stroke-width="0.8"/>
  </g>
</svg>
