<svg xmlns="http://www.w3.org/2000/svg" width="29.127" height="36.002" viewBox="0 0 29.127 36.002">
  <g id="ico-quick-research" transform="translate(-51.264 -57)">
    <path id="빼기_1" data-name="빼기 1" d="M21952.674,22682.287h-21.41V22654h15.119l6.291,6.289v22Zm-17.381-18.475v8.77l3.775-4.133,3.4,3.688h1.3l-4.053-4.389,2.727-2.982h4.572a1.252,1.252,0,0,1,0,2.5h-3.246l4.486,4.867h1.3l-3.607-3.91h1.07a2.206,2.206,0,1,0,0-4.412h-4.994l-5.777,6.33v-6.33h-.951Z" transform="translate(-21880 -22589.285)" fill="#61637b"/>
    <path id="copy" d="M56.585,0V5.606H64.43a1.054,1.054,0,0,1,.745.308l6.908,6.908a1.054,1.054,0,0,1,.308.745V28.286H78V6.291L71.708,0Z" transform="translate(2.392 57)" fill="#61637b" fill-rule="evenodd"/>
  </g>
</svg>
