<svg xmlns="http://www.w3.org/2000/svg" width="36" height="35.952" viewBox="0 0 36 35.952">
  <g id="ico-quick-esg" transform="translate(-50 -57.024)">
    <path id="home-insurance" d="M25.129,25.463a3.585,3.585,0,0,1,.752.853,3.306,3.306,0,0,1,.288.572l.011.029,5.192-2.86a1.77,1.77,0,0,0-1.088-.664,3.494,3.494,0,0,0-2.164.575q-.089.049-.246.144h0a.611.611,0,0,1-.066.035l-2.678,1.316ZM6.6,26.55l.11-.073c2.083-1.392,4.02-2.686,8.54-.99a.6.6,0,0,0,.236.038q1.286-.051,2.958-.066t3.731,0a6.1,6.1,0,0,1,1.705.616,2.677,2.677,0,0,1,.969.88,2.093,2.093,0,0,1,.178.363l0,.006L15.441,29.2a.61.61,0,1,0,.234,1.2l10.3-2.014a.609.609,0,0,0,.176-.064l6.3-3.471a8.67,8.67,0,0,1,2.391-.2,1.827,1.827,0,0,1,.86.259.653.653,0,0,1,.272.424,1.163,1.163,0,0,1,.02.155L22.761,34.757a14.557,14.557,0,0,1-5.161.122,65.209,65.209,0,0,1-8.773-1.727.606.606,0,0,0-.464.069l-1.76.993Zm-1.22-2.118H0V36.294H5.382Zm16.893-.184,1.392-.791a4.568,4.568,0,0,1,2.419-.583.987.987,0,0,1,.681.429L23.88,24.721a8.385,8.385,0,0,0-1.5-.462h0a.611.611,0,0,0-.1-.012Z" transform="translate(50 56.682)" fill="#61637b" fill-rule="evenodd"/>
    <g id="sprout" transform="translate(52.016 56.614)">
      <path id="패스_275" data-name="패스 275" d="M41.563,4.159C37.153-.252,29.546.435,29.224.466a1.063,1.063,0,0,0-.955.955c-.031.322-.718,7.928,3.693,12.339,3.31,3.31,8.419,3.749,10.9,3.749l.3,0v2.081c.353-.03.708-.047,1.063-.047s.71.017,1.063.047V16.4S45.561,8.157,41.563,4.159Z" transform="translate(-26.229 0)" fill="#61637b"/>
      <path id="패스_277" data-name="패스 277" d="M291.576,56.115a1.063,1.063,0,0,0-.955-.955c-.244-.024-6.015-.545-9.379,2.82l-.057.059a19.006,19.006,0,0,1,1.178,4.367,22.674,22.674,0,0,1,.194,5.16,3.176,3.176,0,0,1-.141.674,10.736,10.736,0,0,0,6.34-2.746C292.121,62.13,291.6,56.359,291.576,56.115Z" transform="translate(-261.414 -50.861)" fill="#61637b"/>
    </g>
  </g>
</svg>
