<svg xmlns="http://www.w3.org/2000/svg" width="36.006" height="36" viewBox="0 0 36.006 36">
  <g id="ico-quick-grade" transform="translate(-48.395 -57)">
    <path id="statistics" d="M32.289,0a3.642,3.642,0,0,0-3.36,5.051l.158.376L24.892,9.3l-.366-.2A3.634,3.634,0,0,0,20.32,9.6l-.285.261L16.682,8.317l.036-.408c.01-.107.015-.213.015-.32A3.644,3.644,0,1,0,9.62,8.7l.116.363L5.384,12.874l-.339-.15A3.646,3.646,0,1,0,6.91,14.589L6.737,14.2l4.179-3.659.36.208a3.632,3.632,0,0,0,4.278-.478l.285-.262,3.348,1.545-.037.408c-.01.11-.017.221-.017.331a3.644,3.644,0,1,0,7.09-1.182l-.123-.358,4.3-3.97.353.165A3.643,3.643,0,1,0,32.289,0Z" transform="translate(48.466 57)" fill="#61637b" fill-rule="evenodd"/>
    <path id="statistics-2" data-name="statistics" d="M.876,36H5.928a.943.943,0,0,0,.944-.944V24.811a.943.943,0,0,0-.944-.944H.876a.943.943,0,0,0-.943.944V35.056A.943.943,0,0,0,.876,36ZM34.989,10.454a.943.943,0,0,1,.944.943V35.056A.943.943,0,0,1,34.99,36H29.938a.943.943,0,0,1-.944-.944V11.4a.943.943,0,0,1,.944-.944ZM15.616,36H10.564a.943.943,0,0,1-.944-.944V15.869a.943.943,0,0,1,.944-.944h5.052a.944.944,0,0,1,.944.944V35.056a.944.944,0,0,1-.944.944ZM25.3,36H20.251a.943.943,0,0,1-.944-.944V20.34a.944.944,0,0,1,.944-.944H25.3a.944.944,0,0,1,.944.944V35.056A.943.943,0,0,1,25.3,36Z" transform="translate(48.466 57)" fill="#61637b" fill-rule="evenodd"/>
  </g>
</svg>
