<?xml version="1.0" encoding="utf-8"?>
<!-- Generator: Adobe Illustrator 26.3.1, SVG Export Plug-In . SVG Version: 6.00 Build 0)  -->
<svg version="1.1" id="Capa_1" xmlns="http://www.w3.org/2000/svg" xmlns:xlink="http://www.w3.org/1999/xlink" x="0px" y="0px"
	 viewBox="0 0 36 36" style="enable-background:new 0 0 36 36;" xml:space="preserve">
<style type="text/css">
	.st0{fill:#61637B;}
</style>
<g>
	<g>
		<path class="st0" d="M23.3,0c-7,0-12.7,5.7-12.7,12.7c0,3.1,1.1,6,3,8.2L11.5,23c-1.2-0.6-2.6-0.4-3.6,0.6L1,30.6
			c-3,3,1.5,7.4,4.5,4.5l6.9-6.9c1-1,1.1-2.4,0.6-3.6l2.2-2.2c2.2,1.9,5.1,3,8.2,3c7,0,12.7-5.7,12.7-12.7S30.3,0,23.3,0z M30.7,9.9
			l-3.2,8.4c-0.3,0.9-1.6,0.9-2,0l-2.2-5.8l-2.2,5.8c-0.3,0.8-1.7,0.8-2,0L16,9.9c-0.5-1.3,1.5-2,2-0.7l2.2,5.8l2.2-5.8
			c0.3-0.8,1.7-0.8,2,0l2.2,5.8l2.2-5.8C29.2,7.8,31.1,8.6,30.7,9.9z"/>
	</g>
</g>
</svg>
